<svg xmlns="http://www.w3.org/2000/svg" xmlns:svg="http://www.w3.org/2000/svg" id="svg2" width="260" height="99" preserveAspectRatio="xMidYMid slice" version="1.1" viewBox="0 0 333.333 126.667" xml:space="preserve"><metadata id="metadata8"/><g id="g10" transform="matrix(1.3333333,0,0,-1.3333333,0,126.66667)"><g id="g12" transform="scale(0.1)"><g id="g14" transform="scale(10)"><text transform="matrix(1,0,0,-1,14.5734,68.1176)" style="font-variant:normal;font-weight:400;font-size:11.46389961px;font-family:Helvetica;-inkscape-font-specification:Helvetica;writing-mode:lr-tb;fill:#000;fill-opacity:1;fill-rule:nonzero;stroke:none" id="text18"><tspan id="tspan16" x="0 7.646 14.02 19.752 26.126 29.944 36.318" y="0">Several</tspan></text><text transform="matrix(1,0,0,-1,66.1613,67.945725)" style="font-style:oblique;font-variant:normal;font-size:11.46389961px;font-family:Helvetica;-inkscape-font-specification:Helvetica-Oblique;writing-mode:lr-tb;fill:#000;fill-opacity:1;fill-rule:nonzero;stroke:none" id="text24"><tspan id="tspan20" x="0 6.374 15.923 22.297 28.671 35.045 40.777 43.322 49.054 55.428" y="0">emphasized</tspan><tspan id="tspan22" x="-51.588 -43.311 -36.937 -33.12 -26.746" y="21.017">words</tspan></text><text transform="matrix(1,0,0,-1,58.5183,47.100791)" style="font-variant:normal;font-weight:400;font-size:11.46389961px;font-family:Helvetica;-inkscape-font-specification:Helvetica;writing-mode:lr-tb;fill:#000;fill-opacity:1;fill-rule:nonzero;stroke:none" id="text28"><tspan id="tspan26" x="0 6.374 12.748 19.122 25.496 31.87 35.687 38.874 45.248 51.622 55.439 61.813" y="0">appear here.</tspan></text></g><path d="m 23.8242,125.785 h 112.363 v 783.25 H 23.8242 Z" style="fill:gray;fill-opacity:1;fill-rule:evenodd;stroke:none" id="path30"/><path d="m 23.8242,125.785 h 112.363 v 783.25 H 23.8242 Z" style="fill:none;stroke:#000;stroke-width:7.5;stroke-linecap:butt;stroke-linejoin:miter;stroke-miterlimit:10;stroke-dasharray:none;stroke-opacity:1" id="path32"/><path d="m 1294.41,125.785 h 112.363 v 783.25 H 1294.41 Z" style="fill:gray;fill-opacity:1;fill-rule:evenodd;stroke:none" id="path34"/><path d="m 1294.41,125.785 h 112.363 v 783.25 H 1294.41 Z" style="fill:none;stroke:#000;stroke-width:7.5;stroke-linecap:butt;stroke-linejoin:miter;stroke-miterlimit:10;stroke-dasharray:none;stroke-opacity:1" id="path36"/><path d="M 174.395,197.898 H 1253.91" style="fill:none;stroke:#000;stroke-width:7.5;stroke-linecap:butt;stroke-linejoin:miter;stroke-miterlimit:10;stroke-dasharray:none;stroke-opacity:1" id="path38"/><path d="m 250.82,178.789 -76.425,19.109 76.425,19.106" style="fill:gray;fill-opacity:1;fill-rule:evenodd;stroke:none" id="path40"/><path d="m 250.82,178.789 -76.425,19.109 76.425,19.106" style="fill:none;stroke:#000;stroke-width:7.5;stroke-linecap:butt;stroke-linejoin:miter;stroke-miterlimit:10;stroke-dasharray:none;stroke-opacity:1" id="path42"/><path d="m 1177.49,217.004 76.42,-19.106 -76.42,-19.109" style="fill:gray;fill-opacity:1;fill-rule:evenodd;stroke:none" id="path44"/><path d="m 1177.49,217.004 76.42,-19.106 -76.42,-19.109" style="fill:none;stroke:#000;stroke-width:7.5;stroke-linecap:butt;stroke-linejoin:miter;stroke-miterlimit:10;stroke-dasharray:none;stroke-opacity:1" id="path46"/><g id="g48" transform="scale(10)"><text transform="matrix(1,0,0,-1,30.3363,5.57852)" style="font-style:oblique;font-variant:normal;font-size:10.50860023px;font-family:Helvetica;-inkscape-font-specification:Helvetica-Oblique;writing-mode:lr-tb;fill:#000;fill-opacity:1;fill-rule:nonzero;stroke:none" id="text52"><tspan id="tspan50" x="0 9.92 12.253 18.096 21.017 26.86 29.781 35.624 38.546 41.467 47.31 53.153 56.652 62.495 68.337 71.837 77.68 83.522" y="0">Width of paragraph</tspan></text></g><path d="M 1292.13,776.078 H 632.953 V 626.137 h 668.727" style="fill:none;stroke:#000;stroke-width:19.10650063;stroke-linecap:butt;stroke-linejoin:miter;stroke-miterlimit:10;stroke-dasharray:114.639,38.213;stroke-dashoffset:0;stroke-opacity:1" id="path54"/><path d="M 136.184,551.367 H 480.098 V 427.176 H 145.734 v 0" style="fill:none;stroke:#000;stroke-width:19.10650063;stroke-linecap:butt;stroke-linejoin:miter;stroke-miterlimit:10;stroke-dasharray:114.639,38.213;stroke-dashoffset:0;stroke-opacity:1" id="path56"/><path d="m 1416.32,656.453 h 38.21" style="fill:none;stroke:#000;stroke-width:7.5;stroke-linecap:butt;stroke-linejoin:miter;stroke-miterlimit:10;stroke-dasharray:none;stroke-opacity:1" id="path58"/><path d="m 1416.32,895.285 h 38.21" style="fill:none;stroke:#000;stroke-width:7.5;stroke-linecap:butt;stroke-linejoin:miter;stroke-miterlimit:10;stroke-dasharray:none;stroke-opacity:1" id="path60"/><path d="m 1416.32,207.449 h 38.21" style="fill:none;stroke:#000;stroke-width:7.5;stroke-linecap:butt;stroke-linejoin:miter;stroke-miterlimit:10;stroke-dasharray:none;stroke-opacity:1" id="path62"/><path d="m 1416.32,446.281 h 38.21" style="fill:none;stroke:#000;stroke-width:7.5;stroke-linecap:butt;stroke-linejoin:miter;stroke-miterlimit:10;stroke-dasharray:none;stroke-opacity:1" id="path64"/><path d="M 1550.06,895.285 V 656.453" style="fill:none;stroke:#000;stroke-width:7.5;stroke-linecap:butt;stroke-linejoin:miter;stroke-miterlimit:10;stroke-dasharray:none;stroke-opacity:1" id="path66"/><path d="m 1530.96,818.859 19.1,76.426 19.11,-76.426" style="fill:none;stroke:#000;stroke-width:7.5;stroke-linecap:butt;stroke-linejoin:miter;stroke-miterlimit:10;stroke-dasharray:none;stroke-opacity:1" id="path68"/><path d="m 1569.17,732.879 -19.11,-76.426 -19.1,76.426" style="fill:none;stroke:#000;stroke-width:7.5;stroke-linecap:butt;stroke-linejoin:miter;stroke-miterlimit:10;stroke-dasharray:none;stroke-opacity:1" id="path70"/><g id="g72" transform="scale(10)"><text transform="matrix(1,0,0,-1,162.649,74.8395)" style="font-style:oblique;font-variant:normal;font-size:10.50860023px;font-family:Helvetica;-inkscape-font-specification:Helvetica-Oblique;writing-mode:lr-tb;fill:#000;fill-opacity:1;fill-rule:nonzero;stroke:none" id="text76"><tspan id="tspan74" x="0 5.843 8.176 14.018 19.861 22.783 28.625 34.468 36.801 42.644 48.487 51.408 54.329 60.172 63.094 68.936 74.779" y="0">Line height 2.4em</tspan></text></g><path d="m 1492.75,618.242 h 993.535 V 933.5 H 1492.75 Z" style="fill:none;stroke:#fff;stroke-width:7.5;stroke-linecap:butt;stroke-linejoin:miter;stroke-miterlimit:10;stroke-dasharray:none;stroke-opacity:1" id="path78"/></g></g></svg>