<svg xmlns="http://www.w3.org/2000/svg" viewBox="-130 -130 270 260"><desc>Show a top-down view of the CIE Lab color space. The sRGB primaries and secondaries are shown, with an annotation indicating the L value red (#F00) is lch(54.2917% 106.8390 40.8526) lab(54.2917, 80.81247134537588, 69.88502268764606) sRGB yellow (#FF0) is lch(97.6071% 94.7077 99.5746) lab(97.6071, -15.75288562782686, 93.38840952541491) Gamut boundary is approximated with straight dashed lines. Origin color lch(60% 90.00 320) = lab(60% 68.944 -57.851) = rgb(86.054% 33.428% 97.634%) Hue rotated -120 lch(60% 90.00 200) = lab(60% -84.572 -30.782) = color(srgb -0.6032 0.69801 0.77217) Gamut mapped (in lch) lch(60.7438% 37.59 200.937) = lab(60.7438% -35.108 -13.432) = rgb(0% 64.246% 66.28%)</desc><style type="text/css">@font-face{font-family:OS_Cond_Med;src:url(./fonts/OS_Cond_Med.woff2)}text{font-family:OS_Cond_Med;font-size:7px;text-anchor:start;fill:#555}</style><rect width="100%" height="100%" x="-130" y="-130" fill="#fff"/><g fill="none" stroke="#000" stroke-width=".5">​<polyline points="0 -120 0 120"/><polyline points="-120 0 120 0"/><g stroke="#888"><path d="M-3,-110 h6 M-3,-100 h6 M-3,-90 h6 M-3,-80 h6 M-3,-70 h6 M-3,-60 h6 M-3,-50 h6 M-3,-40 h6 M-3,-30 h6 M-3,-20 h6 M-3,-10 h6 M-3,10 h6 M-3,20 h6 M-3,30 h6 M-3,40 h6 M-3,50 h6 M-3,60 h6 M-3,70 h6 M-3,80 h6 M-3,90 h6 M-3,100 h6 M-3,110 h6"/><path d="M110,-3 v6 M100,-3 v6 M90,-3 v6 M80,-3 v6 M70,-3 v6 M60,-3 v6 M50,-3 v6 M40,-3 v6 M30,-3 v6 M20,-3 v6 M10,-3 v6 M-10,-3 v6 M-20,-3 v6 M-30,-3 v6 M-40,-3 v6 M-50,-3 v6 M-60,-3 v6 M-70,-3 v6 M-80,-3 v6 M-90,-3 v6 M-100,-3 v6 M-110,-3 v6"/></g><polyline stroke="#BBB" stroke-dasharray="3" stroke-width="2" points="80.81 -69.88 -15.75 -93.38 -79.28 -80.99 -50.66 14.96 68.29 112.02 93.54 60.49 80.81 -69.88"/></g><defs><marker id="arrowhead" markerHeight="8" markerUnits="strokeWidth" markerWidth="6" orient="auto" refX="7" refY="5" viewBox="0 0 10 10"><path fill="#000" stroke="none" d="M 0 0 L 10 5 L 0 10 z"/></marker></defs><g stroke="none" stroke-width=".5"><circle cx="80.812" cy="-69.885" r="2" fill="red"/><circle cx="-79.287" cy="-80.99" r="2" fill="green"/><circle cx="68.299" cy="112.029" r="2" fill="#00f"/><circle cx="-50.665" cy="14.962" r="2" fill="#0ff"/><circle cx="93.55" cy="60.499" r="2" fill="#f0f"/><circle cx="-15.753" cy="-93.388" r="2" fill="#ff0"/></g><g stroke="#000" stroke-width=".9"><path fill="none" marker-end="url(#arrowhead)" d="M 45.96266658713867 38.567256581192375 A 60 60 0 0 1 -56.381557247154504 20.52120859954012"/><polyline points="0 0 68.944 57.851"/><circle cx="68.944" cy="57.851" r="5" fill="rgb(86.054% 33.428% 97.634%)"/><polyline points="0 0 -84.572 30.782"/><circle cx="-84.572" cy="30.782" r="5" fill="#AAA" stroke="red"/><circle cx="-35.108" cy="13.432" r="5" fill="rgb(0% 64.246% 66.28%)"/></g><g font-family="sans-serif"><text x="50" y="74">origin color</text><text x="-105" y="49">rotated, <tspan x="-105" dy="9">out of gamut <tspan x="-105" dy="9">color</tspan></tspan></text><text x="-25" y="25">gamut mapped</text></g><circle r="4"/><circle r="3" fill="#777"/><circle r="2" fill="#fff"/><g font-family="sans-serif" font-size="8"><text x="120" y="-3">+a</text><text x="-120.5" y="-3" text-anchor="end">-a</text><text x="4" y="122">-b</text><text x="4" y="-118">+b</text></g></svg>