<svg xmlns="http://www.w3.org/2000/svg" viewBox="-45 -45 90 90"><desc>Show a top-down view of the OKLab color space. The rec2020 primaries and secondaries are shown, with an annotation indicating the L value. For comparison, the sRGB and display-p3 primaries and secondaries are also shown. Scaling is 100x -100x for a and b</desc><rect width="100%" height="100%" x="-45" y="-45" fill="#fff"/><g fill="none" stroke="#000" stroke-width=".2">​<polyline points="0 -45 0 45"/><polyline points="-45 0 45 0"/><g stroke="#888"><path d="M-1,-40 h2 M-1,-35 h2 M-1,-30 h2 M-1,-25 h2 M-1,-20 h2 M-1,-15 h2 M-1,-10 h2 M-1,-5 h2 M-1,5 h2 M-1,10 h2 M-1,15 h2 M-1,20 h2 M-1,25 h2 M-1,30 h2 M-1,35 h2 M-1,40 h2"/><path d="M40,-1 v2 M35,-1 v2 M30,-1 v2 M25,-1 v2 M20,-1 v2 M15,-1 v2 M10,-1 v2 M5,-1 v2 M-5,-1 v2 M-10,-1 v2 M-15,-1 v2 M-20,-1 v2 M-25,-1 v2 M-30,-1 v2 M-35,-1 v2 M-40,-1 v2"/></g></g><polyline fill="none" stroke="#BBD" stroke-width=".4" points="22.486 -12.585 15.893 -13.839 10.933 -14.892 6.989 -15.811 3.73 -16.632 .964 -17.378 -1.434 -18.064 -3.547 -18.7 -5.434 -19.296 -7.137 -19.857 -8.531 -19.664 -10.002 -19.468 -11.558 -19.267 -13.21 -19.061 -14.968 -18.85 -16.846 -18.634 -18.862 -18.413 -21.035 -18.185 -23.389 -17.95 -21.793 -14.287 -20.471 -11.13 -19.349 -8.343 -18.378 -5.842 -17.527 -3.568 -16.773 -1.48 -16.1 .453 -15.493 2.253 -14.944 3.94 -14.427 4.66 -13.892 5.413 -13.34 6.202 -12.77 7.029 -12.179 7.899 -11.567 8.817 -10.933 9.787 -10.275 10.817 -9.592 11.915 -8.883 13.089 -8.147 14.352 -7.385 15.719 -6.599 17.207 -5.794 18.842 -4.983 20.658 -4.194 22.701 -3.49 25.043 -3.024 27.794 -3.246 31.153 6.463 28.742 12.16 26.68 16.082 24.866 19.019 23.24 21.34 21.765 23.245 20.412 24.853 19.163 26.24 18.001 27.457 16.916 27.563 15.165 27.618 13.251 27.603 11.135 27.493 8.765 27.249 6.066 26.809 2.918 26.065 -.879 24.805 -5.719 22.486 -12.585"/><g fill="#fff" stroke="#bbb" stroke-dasharray=".1 .2" stroke-width=".2"><circle cx="22.486" cy="-12.585" r="1" fill="#FF000040"><title>oklch(62.79554% 0.257683 29.23389)</title></circle><circle cx="-23.389" cy="-17.95" r="1" fill="#00FF0040"><title>oklch(86.64396% 0.294827 142.4953)</title></circle><circle cx="-3.246" cy="31.153" r="1" fill="#0000FF40"><title>oklch(45.20137% 0.313214 264.052)</title></circle><circle cx="-14.944" cy="3.94" r="1" fill="#00FFFF40"><title>oklch(90.53992% 0.15455 194.7689)</title></circle><circle cx="27.457" cy="16.916" r="1" fill="#FF00FF40"><title>oklch(70.16739% 0.322491 328.3634)</title></circle><circle cx="-7.137" cy="-19.857" r="1" fill="#FFFF0040"><title>oklch(96.79827% 0.211006 109.7692)</title></circle></g><polyline fill="none" stroke="#DBB" stroke-width=".4" points="33.273 -14.944 25.529 -16.468 19.16 -17.754 13.755 -18.876 9.064 -19.878 4.923 -20.786 1.219 -21.621 -2.131 -22.395 -5.187 -23.118 -7.996 -23.798 -10.486 -23.575 -13.169 -23.346 -16.077 -23.113 -19.249 -22.873 -22.735 -22.627 -26.601 -22.374 -30.937 -22.112 -35.868 -21.84 -41.577 -21.556 -39.442 -16.562 -37.805 -12.479 -36.493 -8.996 -35.412 -5.944 -34.504 -3.216 -33.729 -.745 -33.063 1.518 -32.484 3.609 -31.979 5.554 -31.184 6.363 -30.365 7.206 -29.523 8.085 -28.655 9.005 -27.76 9.97 -26.837 10.983 -25.883 12.051 -24.899 13.18 -23.882 14.378 -22.833 15.654 -21.751 17.02 -20.638 18.491 -19.501 20.085 -18.352 21.828 -17.216 23.752 -16.149 25.905 -15.275 28.359 -14.915 31.226 -16.138 34.713 6.751 31.378 16.48 28.701 22.531 26.414 26.85 24.403 30.178 22.604 32.872 20.973 35.13 19.479 37.071 18.1 38.774 16.818 38.913 14.88 38.983 12.766 38.966 10.439 38.833 7.844 38.542 4.903 38.028 1.494 37.179 -2.587 35.775 -7.74 33.273 -14.944"/><g fill="#fff" stroke="#bbb" stroke-width=".2"><circle cx="33.273" cy="-14.944" r="1" fill="red"><title>oklch(68.7089% 0.364748 24.18614)</title></circle><circle cx="-41.577" cy="-21.556" r="1" fill="green"><title>oklch(82.97772% 0.468333 152.5951)</title></circle><circle cx="-16.138" cy="34.713" r="1" fill="#00f"><title>oklch(42.34483% 0.382811 245.0667)</title></circle><circle cx="-31.979" cy="5.554" r="1" fill="#0ff"><title>oklch(86.51035% 0.324581 189.853)</title></circle><circle cx="38.775" cy="16.818" r="1" fill="#f0f"><title>oklch(74.43006% 0.422646 336.5519)</title></circle><circle cx="-7.996" cy="-23.798" r="1" fill="#ff0"><title>oklch(97.25923% 0.251052 108.5719)</title></circle></g><polyline fill="none" stroke="#BDB" stroke-width=".4" points="26.204 -14.5 19.029 -15.971 13.411 -17.205 8.814 -18.279 4.935 -19.237 1.587 -20.107 -1.353 -20.906 -3.971 -21.647 -6.329 -22.34 -8.473 -22.992 -10.261 -22.771 -12.163 -22.546 -14.194 -22.315 -16.372 -22.079 -18.718 -21.837 -21.258 -21.588 -24.026 -21.333 -27.063 -21.069 -30.424 -20.797 -28.308 -16.183 -26.628 -12.369 -25.24 -9.095 -24.064 -6.215 -23.048 -3.636 -22.158 -1.296 -21.369 .849 -20.664 2.831 -20.028 4.675 -18.638 6.354 -17.151 8.192 -15.55 10.224 -13.818 12.497 -11.933 15.077 -9.874 18.069 -7.631 21.638 -5.269 26.097 -3.349 32.142 7.692 29.633 14.143 27.484 18.594 25.587 21.939 23.883 24.593 22.331 26.78 20.906 28.631 19.587 30.233 18.357 31.642 17.206 31.776 15.376 31.854 13.37 31.858 11.149 31.758 8.656 31.514 5.805 31.053 2.465 30.255 -1.595 28.866 -6.838 26.204 -14.5"/><g fill="#fff" stroke="#bbb" stroke-dasharray=".2 .2" stroke-width=".2"><circle cx="26.204" cy="-14.5" r="1" fill="#FF000070"><title>oklch(64.85741% 0.299485 28.95814)</title></circle><circle cx="-30.424" cy="-20.797" r="1" fill="#00FF0070"><title>oklch(84.88293% 0.368528 145.645)</title></circle><circle cx="-3.349" cy="32.142" r="1" fill="#0000FF70"><title>oklch(46.63605% 0.323156 264.052)</title></circle><circle cx="-20.028" cy="4.675" r="1" fill="#00FFFF70"><title>oklch(89.29016% 0.205667 193.1377)</title></circle><circle cx="31.642" cy="17.206" r="1" fill="#FF00FF70"><title>oklch(72.49796% 0.360176 331.4644)</title></circle><circle cx="-8.473" cy="-22.992" r="1" fill="#FFFF0070"><title>oklch(96.47641% 0.245031 110.2298)</title></circle></g><circle r="1"/><circle r=".7" fill="#777"/><circle r=".4" fill="#fff"/><g font-family="sans-serif" font-size="2pt"><text x="42" y="-1">+a</text><text x="-43" y="-1" text-anchor="end">-a</text><text x="2" y="44">-b</text><text x="2" y="-42">+b</text></g><g fill="#444" font-family="sans-serif" font-size="2.4"><text x="-36" y="-40">Rec BT.2020</text><text x="-36" y="-37">Display P3</text><text x="-36" y="-34">sRGB</text><polyline fill="none" stroke="#DBB" stroke-width=".4" points="-44 -41 -38 -41"/><polyline fill="none" stroke="#BDB" stroke-width=".4" points="-44 -38 -38 -38"/><polyline fill="none" stroke="#BBD" stroke-width=".4" points="-44 -35 -38 -35"/></g></svg>