<svg xmlns="http://www.w3.org/2000/svg" width="240" height="575" overflow="visible" viewBox="-5 -105 48 115"><desc>Show a luminance ramp from black to white.</desc><rect width="100%" height="100%" x="-5" y="-105" fill="#fff"/><g class="swatches"><rect width="30" height="5" x="0" y="0" fill="#000"/><rect width="30" height="5" x="0" y="-5" fill="#3F3F3F"/><rect width="30" height="5" x="0" y="-10" fill="#595959"/><rect width="30" height="5" x="0" y="-15" fill="#6C6C6C"/><rect width="30" height="5" x="0" y="-20" fill="#7C7C7C"/><rect width="30" height="5" x="0" y="-25" fill="#898989"/><rect width="30" height="5" x="0" y="-30" fill="#959595"/><rect width="30" height="5" x="0" y="-35" fill="#A0A0A0"/><rect width="30" height="5" x="0" y="-40" fill="#AAA"/><rect width="30" height="5" x="0" y="-45" fill="#B3B3B3"/><rect width="30" height="5" x="0" y="-50" fill="#BCBCBC"/><rect width="30" height="5" x="0" y="-55" fill="#C4C4C4"/><rect width="30" height="5" x="0" y="-60" fill="#CBCBCB"/><rect width="30" height="5" x="0" y="-65" fill="#D3D3D3"/><rect width="30" height="5" x="0" y="-70" fill="#DADADA"/><rect width="30" height="5" x="0" y="-75" fill="#E1E1E1"/><rect width="30" height="5" x="0" y="-80" fill="#E7E7E7"/><rect width="30" height="5" x="0" y="-85" fill="#EDEDED"/><rect width="30" height="5" x="0" y="-90" fill="#F3F3F3"/><rect width="30" height="5" x="0" y="-95" fill="#F9F9F9"/><rect width="30" height="5" x="0" y="-100" fill="#fff"/><rect width="30" height="105" x="0" y="-100" fill="none" stroke="#000" stroke-width=".3"/></g><g font-family="sans-serif" font-size="2pt"><text x="33" y="3">0%</text><text x="33" y="-7">10%</text><text x="33" y="-17">20%</text><text x="33" y="-27">30%</text><text x="33" y="-37">40%</text><text x="33" y="-47">50%</text><text x="33" y="-57">60%</text><text x="33" y="-67">70%</text><text x="33" y="-77">80%</text><text x="33" y="-87">90%</text><text x="33" y="-97">100%</text></g></svg>