<svg xmlns="http://www.w3.org/2000/svg" viewBox="-4 -4 140 60"><rect width="1.1" height="10" x="123.273" fill="salmon"/><rect width="1.1" height="10" x="122.273" fill="salmon"/><rect width="1.1" height="10" x="121.273" fill="salmon"/><rect width="1.1" height="10" x="120.273" fill="salmon"/><rect width="1.1" height="10" x="119.273" fill="salmon"/><rect width="1.1" height="10" x="118.273" fill="salmon"/><rect width="1.1" height="10" x="117.273" fill="salmon"/><rect width="1.1" height="10" x="116.273" fill="salmon"/><rect width="1.1" height="10" x="115.273" fill="salmon"/><rect width="1.1" height="10" x="114.273" fill="salmon"/><rect width="1.1" height="10" x="113.273" fill="salmon"/><rect width="1.1" height="10" x="112.273" fill="salmon"/><rect width="1.1" height="10" x="111.273" fill="salmon"/><rect width="1.1" height="10" x="110.273" fill="salmon"/><rect width="1.1" height="10" x="109.273" fill="salmon"/><rect width="1.1" height="10" x="108.273" fill="salmon"/><rect width="1.1" height="10" x="107.273" fill="salmon"/><rect width="1.1" height="10" x="106.273" fill="salmon"/><rect width="1.1" height="10" x="105.273" fill="rgb(99.08% 99.72% 6.21%)"/><rect width="1.1" height="10" x="104.273" fill="rgb(99.03% 99.7% 10.75%)"/><rect width="1.1" height="10" x="103.273" fill="rgb(98.98% 99.68% 14%)"/><rect width="1.1" height="10" x="102.273" fill="rgb(98.93% 99.66% 16.65%)"/><rect width="1.1" height="10" x="101.273" fill="rgb(98.88% 99.64% 18.92%)"/><rect width="1.1" height="10" x="100.273" fill="rgb(98.83% 99.62% 20.94%)"/><rect width="1.1" height="10" x="99.273" fill="rgb(98.79% 99.6% 22.78%)"/><rect width="1.1" height="10" x="98.273" fill="rgb(98.74% 99.58% 24.48%)"/><rect width="1.1" height="10" x="97.273" fill="rgb(98.69% 99.55% 26.06%)"/><rect width="1.1" height="10" x="96.273" fill="rgb(98.64% 99.53% 27.55%)"/><rect width="1.1" height="10" x="95.273" fill="rgb(98.6% 99.51% 28.95%)"/><rect width="1.1" height="10" x="94.273" fill="rgb(98.55% 99.49% 30.29%)"/><rect width="1.1" height="10" x="93.273" fill="rgb(98.5% 99.46% 31.57%)"/><rect width="1.1" height="10" x="92.273" fill="rgb(98.46% 99.44% 32.8%)"/><rect width="1.1" height="10" x="91.273" fill="rgb(98.41% 99.42% 33.99%)"/><rect width="1.1" height="10" x="90.273" fill="rgb(98.36% 99.39% 35.13%)"/><rect width="1.1" height="10" x="89.273" fill="rgb(98.32% 99.37% 36.23%)"/><rect width="1.1" height="10" x="88.273" fill="rgb(98.27% 99.34% 37.31%)"/><rect width="1.1" height="10" x="87.273" fill="rgb(98.23% 99.32% 38.35%)"/><rect width="1.1" height="10" x="86.273" fill="rgb(98.18% 99.29% 39.37%)"/><rect width="1.1" height="10" x="85.273" fill="rgb(98.14% 99.26% 40.36%)"/><rect width="1.1" height="10" x="84.273" fill="rgb(98.09% 99.24% 41.33%)"/><rect width="1.1" height="10" x="83.273" fill="rgb(98.05% 99.21% 42.27%)"/><rect width="1.1" height="10" x="82.273" fill="rgb(98.01% 99.18% 43.2%)"/><rect width="1.1" height="10" x="81.273" fill="rgb(97.96% 99.15% 44.11%)"/><rect width="1.1" height="10" x="80.273" fill="rgb(97.92% 99.13% 45%)"/><rect width="1.1" height="10" x="79.273" fill="rgb(97.88% 99.1% 45.87%)"/><rect width="1.1" height="10" x="78.273" fill="rgb(97.83% 99.07% 46.73%)"/><rect width="1.1" height="10" x="77.273" fill="rgb(97.79% 99.04% 47.57%)"/><rect width="1.1" height="10" x="76.273" fill="rgb(97.75% 99.01% 48.41%)"/><rect width="1.1" height="10" x="75.273" fill="rgb(97.71% 98.98% 49.22%)"/><rect width="1.1" height="10" x="74.273" fill="rgb(97.66% 98.95% 50.03%)"/><rect width="1.1" height="10" x="73.273" fill="rgb(97.62% 98.92% 50.83%)"/><rect width="1.1" height="10" x="72.273" fill="rgb(97.58% 98.88% 51.61%)"/><rect width="1.1" height="10" x="71.273" fill="rgb(97.54% 98.85% 52.39%)"/><rect width="1.1" height="10" x="70.273" fill="rgb(97.5% 98.82% 53.15%)"/><rect width="1.1" height="10" x="69.273" fill="rgb(97.46% 98.79% 53.91%)"/><rect width="1.1" height="10" x="68.273" fill="rgb(97.42% 98.75% 54.65%)"/><rect width="1.1" height="10" x="67.273" fill="rgb(97.38% 98.72% 55.39%)"/><rect width="1.1" height="10" x="66.273" fill="rgb(97.34% 98.69% 56.12%)"/><rect width="1.1" height="10" x="65.273" fill="rgb(97.3% 98.65% 56.84%)"/><rect width="1.1" height="10" x="64.273" fill="rgb(97.26% 98.62% 57.56%)"/><rect width="1.1" height="10" x="63.273" fill="rgb(97.22% 98.58% 58.26%)"/><rect width="1.1" height="10" x="62.273" fill="rgb(97.18% 98.54% 58.96%)"/><rect width="1.1" height="10" x="61.273" fill="rgb(97.15% 98.51% 59.66%)"/><rect width="1.1" height="10" x="60.273" fill="rgb(97.11% 98.47% 60.35%)"/><rect width="1.1" height="10" x="59.273" fill="rgb(97.07% 98.43% 61.03%)"/><rect width="1.1" height="10" x="58.273" fill="rgb(97.03% 98.4% 61.71%)"/><rect width="1.1" height="10" x="57.273" fill="rgb(97% 98.36% 62.38%)"/><rect width="1.1" height="10" x="56.273" fill="rgb(96.96% 98.32% 63.04%)"/><rect width="1.1" height="10" x="55.273" fill="rgb(96.92% 98.28% 63.7%)"/><rect width="1.1" height="10" x="54.273" fill="rgb(96.89% 98.24% 64.36%)"/><rect width="1.1" height="10" x="53.273" fill="rgb(96.85% 98.2% 65.01%)"/><rect width="1.1" height="10" x="52.273" fill="rgb(96.82% 98.16% 65.65%)"/><rect width="1.1" height="10" x="51.273" fill="rgb(96.78% 98.12% 66.29%)"/><rect width="1.1" height="10" x="50.273" fill="rgb(96.74% 98.08% 66.93%)"/><rect width="1.1" height="10" x="49.273" fill="rgb(96.71% 98.04% 67.56%)"/><rect width="1.1" height="10" x="48.273" fill="rgb(96.68% 98% 68.19%)"/><rect width="1.1" height="10" x="47.273" fill="rgb(96.64% 97.95% 68.82%)"/><rect width="1.1" height="10" x="46.273" fill="rgb(96.61% 97.91% 69.44%)"/><rect width="1.1" height="10" x="45.273" fill="rgb(96.57% 97.87% 70.05%)"/><rect width="1.1" height="10" x="44.273" fill="rgb(96.54% 97.82% 70.67%)"/><rect width="1.1" height="10" x="43.273" fill="rgb(96.51% 97.78% 71.28%)"/><rect width="1.1" height="10" x="42.273" fill="rgb(96.48% 97.73% 71.88%)"/><rect width="1.1" height="10" x="41.273" fill="rgb(96.44% 97.69% 72.48%)"/><rect width="1.1" height="10" x="40.273" fill="rgb(96.41% 97.64% 73.08%)"/><rect width="1.1" height="10" x="39.273" fill="rgb(96.38% 97.6% 73.68%)"/><rect width="1.1" height="10" x="38.273" fill="rgb(96.35% 97.55% 74.27%)"/><rect width="1.1" height="10" x="37.273" fill="rgb(96.32% 97.5% 74.87%)"/><rect width="1.1" height="10" x="36.273" fill="rgb(96.29% 97.45% 75.45%)"/><rect width="1.1" height="10" x="35.273" fill="rgb(96.26% 97.41% 76.04%)"/><rect width="1.1" height="10" x="34.273" fill="rgb(96.23% 97.36% 76.62%)"/><rect width="1.1" height="10" x="33.273" fill="rgb(96.2% 97.31% 77.2%)"/><rect width="1.1" height="10" x="32.273" fill="rgb(96.17% 97.26% 77.78%)"/><rect width="1.1" height="10" x="31.273" fill="rgb(96.14% 97.21% 78.35%)"/><rect width="1.1" height="10" x="30.273" fill="rgb(96.11% 97.16% 78.92%)"/><rect width="1.1" height="10" x="29.273" fill="rgb(96.08% 97.1% 79.49%)"/><rect width="1.1" height="10" x="28.273" fill="rgb(96.05% 97.05% 80.06%)"/><rect width="1.1" height="10" x="27.273" fill="rgb(96.02% 97% 80.63%)"/><rect width="1.1" height="10" x="26.273" fill="rgb(96% 96.95% 81.19%)"/><rect width="1.1" height="10" x="25.273" fill="rgb(95.97% 96.89% 81.75%)"/><rect width="1.1" height="10" x="24.273" fill="rgb(95.94% 96.84% 82.31%)"/><rect width="1.1" height="10" x="23.273" fill="rgb(95.92% 96.79% 82.87%)"/><rect width="1.1" height="10" x="22.273" fill="rgb(95.89% 96.73% 83.42%)"/><rect width="1.1" height="10" x="21.273" fill="rgb(95.86% 96.68% 83.97%)"/><rect width="1.1" height="10" x="20.273" fill="rgb(95.84% 96.62% 84.52%)"/><rect width="1.1" height="10" x="19.273" fill="rgb(95.81% 96.56% 85.07%)"/><rect width="1.1" height="10" x="18.273" fill="rgb(95.79% 96.51% 85.62%)"/><rect width="1.1" height="10" x="17.273" fill="rgb(95.76% 96.45% 86.17%)"/><rect width="1.1" height="10" x="16.273" fill="rgb(95.74% 96.39% 86.71%)"/><rect width="1.1" height="10" x="15.273" fill="rgb(95.71% 96.33% 87.25%)"/><rect width="1.1" height="10" x="14.273" fill="rgb(95.69% 96.27% 87.79%)"/><rect width="1.1" height="10" x="13.273" fill="rgb(95.67% 96.21% 88.33%)"/><rect width="1.1" height="10" x="12.273" fill="rgb(95.64% 96.15% 88.87%)"/><rect width="1.1" height="10" x="11.273" fill="rgb(95.62% 96.09% 89.4%)"/><rect width="1.1" height="10" x="10.273" fill="rgb(95.6% 96.03% 89.94%)"/><rect width="1.1" height="10" x="9.273" fill="rgb(95.58% 95.97% 90.47%)"/><rect width="1.1" height="10" x="8.273" fill="rgb(95.56% 95.91% 91%)"/><rect width="1.1" height="10" x="7.273" fill="rgb(95.54% 95.85% 91.53%)"/><rect width="1.1" height="10" x="6.273" fill="rgb(95.51% 95.78% 92.06%)"/><rect width="1.1" height="10" x="5.273" fill="rgb(95.49% 95.72% 92.58%)"/><rect width="1.1" height="10" x="4.273" fill="rgb(95.47% 95.65% 93.11%)"/><rect width="1.1" height="10" x="3.273" fill="rgb(95.45% 95.59% 93.63%)"/><rect width="1.1" height="10" x="2.273" fill="rgb(95.43% 95.52% 94.16%)"/><rect width="1.1" height="10" x="1.273" fill="rgb(95.42% 95.46% 94.68%)"/><rect width="1.1" height="10" x=".273" fill="rgb(95.4% 95.39% 95.2%)"/><rect width="123.273" height="25" y="15" fill="none" stroke="gray" stroke-width=".2"/><polyline fill="none" stroke="red" stroke-width=".2" points="123.273 15 122.273 15.026 121.273 15.052 120.273 15.078 119.273 15.104 118.273 15.13 117.273 15.155 116.273 15.181 115.273 15.207 114.273 15.232 113.273 15.257 112.273 15.283 111.273 15.308 110.273 15.333 109.273 15.358 108.273 15.383 107.273 15.408 106.273 15.433 105.273 15.457 104.273 15.482 103.273 15.507 102.273 15.531 101.273 15.556 100.273 15.58 99.273 15.604 98.273 15.628 97.273 15.652 96.273 15.676 95.273 15.7 94.273 15.724 93.273 15.748 92.273 15.771 91.273 15.795 90.273 15.818 89.273 15.841 88.273 15.865 87.273 15.888 86.273 15.911 85.273 15.934 84.273 15.957 83.273 15.98 82.273 16.002 81.273 16.025 80.273 16.048 79.273 16.07 78.273 16.092 77.273 16.115 76.273 16.137 75.273 16.159 74.273 16.181 73.273 16.203 72.273 16.225 71.273 16.247 70.273 16.268 69.273 16.29 68.273 16.311 67.273 16.333 66.273 16.354 65.273 16.375 64.273 16.396 63.273 16.417 62.273 16.438 61.273 16.459 60.273 16.479 59.273 16.5 58.273 16.521 57.273 16.541 56.273 16.561 55.273 16.582 54.273 16.602 53.273 16.622 52.273 16.642 51.273 16.661 50.273 16.681 49.273 16.701 48.273 16.72 47.273 16.74 46.273 16.759 45.273 16.779 44.273 16.798 43.273 16.817 42.273 16.836 41.273 16.855 40.273 16.873 39.273 16.892 38.273 16.911 37.273 16.929 36.273 16.947 35.273 16.966 34.273 16.984 33.273 17.002 32.273 17.02 31.273 17.038 30.273 17.055 29.273 17.073 28.273 17.091 27.273 17.108 26.273 17.125 25.273 17.143 24.273 17.16 23.273 17.177 22.273 17.194 21.273 17.21 20.273 17.227 19.273 17.244 18.273 17.26 17.273 17.277 16.273 17.293 15.273 17.309 14.273 17.325 13.273 17.341 12.273 17.357 11.273 17.373 10.273 17.389 9.273 17.404 8.273 17.42 7.273 17.435 6.273 17.45 5.273 17.465 4.273 17.48 3.273 17.495 2.273 17.51 1.273 17.525 .273 17.539"/><polyline fill="none" stroke="green" stroke-width=".2" points="123.273 15 122.273 15.008 121.273 15.016 120.273 15.025 119.273 15.033 118.273 15.042 117.273 15.051 116.273 15.06 115.273 15.069 114.273 15.079 113.273 15.088 112.273 15.098 111.273 15.108 110.273 15.119 109.273 15.129 108.273 15.14 107.273 15.15 106.273 15.161 105.273 15.173 104.273 15.184 103.273 15.196 102.273 15.207 101.273 15.219 100.273 15.231 99.273 15.244 98.273 15.256 97.273 15.269 96.273 15.282 95.273 15.295 94.273 15.309 93.273 15.322 92.273 15.336 91.273 15.35 90.273 15.364 89.273 15.378 88.273 15.393 87.273 15.408 86.273 15.423 85.273 15.438 84.273 15.453 83.273 15.469 82.273 15.485 81.273 15.501 80.273 15.517 79.273 15.533 78.273 15.55 77.273 15.567 76.273 15.584 75.273 15.601 74.273 15.618 73.273 15.636 72.273 15.654 71.273 15.672 70.273 15.69 69.273 15.709 68.273 15.728 67.273 15.747 66.273 15.766 65.273 15.785 64.273 15.805 63.273 15.825 62.273 15.845 61.273 15.865 60.273 15.885 59.273 15.906 58.273 15.927 57.273 15.948 56.273 15.97 55.273 15.991 54.273 16.013 53.273 16.035 52.273 16.057 51.273 16.08 50.273 16.103 49.273 16.126 48.273 16.149 47.273 16.172 46.273 16.196 45.273 16.22 44.273 16.244 43.273 16.268 42.273 16.293 41.273 16.318 40.273 16.343 39.273 16.368 38.273 16.393 37.273 16.419 36.273 16.445 35.273 16.471 34.273 16.498 33.273 16.524 32.273 16.551 31.273 16.578 30.273 16.606 29.273 16.633 28.273 16.661 27.273 16.689 26.273 16.718 25.273 16.746 24.273 16.775 23.273 16.804 22.273 16.834 21.273 16.863 20.273 16.893 19.273 16.923 18.273 16.953 17.273 16.984 16.273 17.015 15.273 17.046 14.273 17.077 13.273 17.109 12.273 17.14 11.273 17.173 10.273 17.205 9.273 17.237 8.273 17.27 7.273 17.303 6.273 17.337 5.273 17.37 4.273 17.404 3.273 17.438 2.273 17.472 1.273 17.507 .273 17.542"/><polyline fill="none" stroke="#00f" stroke-width=".2" points="123.273 40 122.273 39.878 121.273 39.755 120.273 39.631 119.273 39.506 118.273 39.381 117.273 39.254 116.273 39.127 115.273 38.998 114.273 38.869 113.273 38.739 112.273 38.608 111.273 38.477 110.273 38.344 109.273 38.21 108.273 38.076 107.273 37.941 106.273 37.804 105.273 37.667 104.273 37.529 103.273 37.39 102.273 37.25 101.273 37.109 100.273 36.968 99.273 36.825 98.273 36.681 97.273 36.537 96.273 36.391 95.273 36.245 94.273 36.098 93.273 35.949 92.273 35.8 91.273 35.65 90.273 35.499 89.273 35.347 88.273 35.194 87.273 35.04 86.273 34.885 85.273 34.729 84.273 34.572 83.273 34.414 82.273 34.256 81.273 34.096 80.273 33.935 79.273 33.773 78.273 33.61 77.273 33.447 76.273 33.282 75.273 33.116 74.273 32.95 73.273 32.782 72.273 32.613 71.273 32.443 70.273 32.273 69.273 32.101 68.273 31.928 67.273 31.754 66.273 31.58 65.273 31.404 64.273 31.227 63.273 31.049 62.273 30.87 61.273 30.69 60.273 30.509 59.273 30.327 58.273 30.144 57.273 29.96 56.273 29.775 55.273 29.588 54.273 29.401 53.273 29.213 52.273 29.023 51.273 28.833 50.273 28.641 49.273 28.449 48.273 28.255 47.273 28.06 46.273 27.864 45.273 27.667 44.273 27.469 43.273 27.27 42.273 27.07 41.273 26.869 40.273 26.666 39.273 26.463 38.273 26.258 37.273 26.053 36.273 25.846 35.273 25.638 34.273 25.429 33.273 25.219 32.273 25.007 31.273 24.795 30.273 24.581 29.273 24.367 28.273 24.151 27.273 23.934 26.273 23.716 25.273 23.496 24.273 23.276 23.273 23.055 22.273 22.832 21.273 22.608 20.273 22.383 19.273 22.157 18.273 21.929 17.273 21.701 16.273 21.471 15.273 21.24 14.273 21.008 13.273 20.775 12.273 20.541 11.273 20.305 10.273 20.069 9.273 19.831 8.273 19.591 7.273 19.351 6.273 19.11 5.273 18.867 4.273 18.623 3.273 18.378 2.273 18.131 1.273 17.884 .273 17.635"/><g style="font:1.5px sans-serif;text-anchor:middle"><text x="0" y="-1">0</text><text x="30.193" y="-1">0.06</text><text x="60.386" y="-1">0.12</text><text x="90.579" y="-1">0.18</text><text x="120.772" y="-1">0.24</text></g></svg>