<svg xmlns="http://www.w3.org/2000/svg" viewBox="-4 -4 140 60"><rect width="1.1" height="10" x="123.273" fill="salmon"/><rect width="1.1" height="10" x="122.273" fill="salmon"/><rect width="1.1" height="10" x="121.273" fill="salmon"/><rect width="1.1" height="10" x="120.273" fill="salmon"/><rect width="1.1" height="10" x="119.273" fill="salmon"/><rect width="1.1" height="10" x="118.273" fill="salmon"/><rect width="1.1" height="10" x="117.273" fill="salmon"/><rect width="1.1" height="10" x="116.273" fill="salmon"/><rect width="1.1" height="10" x="115.273" fill="salmon"/><rect width="1.1" height="10" x="114.273" fill="salmon"/><rect width="1.1" height="10" x="113.273" fill="rgb(99.48% 99.86% 0%)"/><rect width="1.1" height="10" x="112.273" fill="rgb(99.43% 99.84% 0%)"/><rect width="1.1" height="10" x="111.273" fill="rgb(99.38% 99.82% 0%)"/><rect width="1.1" height="10" x="110.273" fill="rgb(99.33% 99.81% 0%)"/><rect width="1.1" height="10" x="109.273" fill="rgb(99.28% 99.79% 0%)"/><rect width="1.1" height="10" x="108.273" fill="rgb(99.23% 99.77% 0%)"/><rect width="1.1" height="10" x="107.273" fill="rgb(99.18% 99.75% 0%)"/><rect width="1.1" height="10" x="106.273" fill="rgb(99.13% 99.74% 0%)"/><rect width="1.1" height="10" x="105.273" fill="rgb(99.08% 99.72% 6.21%)"/><rect width="1.1" height="10" x="104.273" fill="rgb(99.03% 99.7% 10.75%)"/><rect width="1.1" height="10" x="103.273" fill="rgb(98.98% 99.68% 14%)"/><rect width="1.1" height="10" x="102.273" fill="rgb(98.93% 99.66% 16.65%)"/><rect width="1.1" height="10" x="101.273" fill="rgb(98.88% 99.64% 18.92%)"/><rect width="1.1" height="10" x="100.273" fill="rgb(98.83% 99.62% 20.94%)"/><rect width="1.1" height="10" x="99.273" fill="rgb(98.79% 99.6% 22.78%)"/><rect width="1.1" height="10" x="98.273" fill="rgb(98.74% 99.58% 24.48%)"/><rect width="1.1" height="10" x="97.273" fill="rgb(98.69% 99.55% 26.06%)"/><rect width="1.1" height="10" x="96.273" fill="rgb(98.64% 99.53% 27.55%)"/><rect width="1.1" height="10" x="95.273" fill="rgb(98.6% 99.51% 28.95%)"/><rect width="1.1" height="10" x="94.273" fill="rgb(98.55% 99.49% 30.29%)"/><rect width="1.1" height="10" x="93.273" fill="rgb(98.5% 99.46% 31.57%)"/><rect width="1.1" height="10" x="92.273" fill="rgb(98.46% 99.44% 32.8%)"/><rect width="1.1" height="10" x="91.273" fill="rgb(98.41% 99.42% 33.99%)"/><rect width="1.1" height="10" x="90.273" fill="rgb(98.36% 99.39% 35.13%)"/><rect width="1.1" height="10" x="89.273" fill="rgb(98.32% 99.37% 36.23%)"/><rect width="1.1" height="10" x="88.273" fill="rgb(98.27% 99.34% 37.31%)"/><rect width="1.1" height="10" x="87.273" fill="rgb(98.23% 99.32% 38.35%)"/><rect width="1.1" height="10" x="86.273" fill="rgb(98.18% 99.29% 39.37%)"/><rect width="1.1" height="10" x="85.273" fill="rgb(98.14% 99.26% 40.36%)"/><rect width="1.1" height="10" x="84.273" fill="rgb(98.09% 99.24% 41.33%)"/><rect width="1.1" height="10" x="83.273" fill="rgb(98.05% 99.21% 42.27%)"/><rect width="1.1" height="10" x="82.273" fill="rgb(98.01% 99.18% 43.2%)"/><rect width="1.1" height="10" x="81.273" fill="rgb(97.96% 99.15% 44.11%)"/><rect width="1.1" height="10" x="80.273" fill="rgb(97.92% 99.13% 45%)"/><rect width="1.1" height="10" x="79.273" fill="rgb(97.88% 99.1% 45.87%)"/><rect width="1.1" height="10" x="78.273" fill="rgb(97.83% 99.07% 46.73%)"/><rect width="1.1" height="10" x="77.273" fill="rgb(97.79% 99.04% 47.57%)"/><rect width="1.1" height="10" x="76.273" fill="rgb(97.75% 99.01% 48.41%)"/><rect width="1.1" height="10" x="75.273" fill="rgb(97.71% 98.98% 49.22%)"/><rect width="1.1" height="10" x="74.273" fill="rgb(97.66% 98.95% 50.03%)"/><rect width="1.1" height="10" x="73.273" fill="rgb(97.62% 98.92% 50.83%)"/><rect width="1.1" height="10" x="72.273" fill="rgb(97.58% 98.88% 51.61%)"/><rect width="1.1" height="10" x="71.273" fill="rgb(97.54% 98.85% 52.39%)"/><rect width="1.1" height="10" x="70.273" fill="rgb(97.5% 98.82% 53.15%)"/><rect width="1.1" height="10" x="69.273" fill="rgb(97.46% 98.79% 53.91%)"/><rect width="1.1" height="10" x="68.273" fill="rgb(97.42% 98.75% 54.65%)"/><rect width="1.1" height="10" x="67.273" fill="rgb(97.38% 98.72% 55.39%)"/><rect width="1.1" height="10" x="66.273" fill="rgb(97.34% 98.69% 56.12%)"/><rect width="1.1" height="10" x="65.273" fill="rgb(97.3% 98.65% 56.84%)"/><rect width="1.1" height="10" x="64.273" fill="rgb(97.26% 98.62% 57.56%)"/><rect width="1.1" height="10" x="63.273" fill="rgb(97.22% 98.58% 58.26%)"/><rect width="1.1" height="10" x="62.273" fill="rgb(97.18% 98.54% 58.96%)"/><rect width="1.1" height="10" x="61.273" fill="rgb(97.15% 98.51% 59.66%)"/><rect width="1.1" height="10" x="60.273" fill="rgb(97.11% 98.47% 60.35%)"/><rect width="1.1" height="10" x="59.273" fill="rgb(97.07% 98.43% 61.03%)"/><rect width="1.1" height="10" x="58.273" fill="rgb(97.03% 98.4% 61.71%)"/><rect width="1.1" height="10" x="57.273" fill="rgb(97% 98.36% 62.38%)"/><rect width="1.1" height="10" x="56.273" fill="rgb(96.96% 98.32% 63.04%)"/><rect width="1.1" height="10" x="55.273" fill="rgb(96.92% 98.28% 63.7%)"/><rect width="1.1" height="10" x="54.273" fill="rgb(96.89% 98.24% 64.36%)"/><rect width="1.1" height="10" x="53.273" fill="rgb(96.85% 98.2% 65.01%)"/><rect width="1.1" height="10" x="52.273" fill="rgb(96.82% 98.16% 65.65%)"/><rect width="1.1" height="10" x="51.273" fill="rgb(96.78% 98.12% 66.29%)"/><rect width="1.1" height="10" x="50.273" fill="rgb(96.74% 98.08% 66.93%)"/><rect width="1.1" height="10" x="49.273" fill="rgb(96.71% 98.04% 67.56%)"/><rect width="1.1" height="10" x="48.273" fill="rgb(96.68% 98% 68.19%)"/><rect width="1.1" height="10" x="47.273" fill="rgb(96.64% 97.95% 68.82%)"/><rect width="1.1" height="10" x="46.273" fill="rgb(96.61% 97.91% 69.44%)"/><rect width="1.1" height="10" x="45.273" fill="rgb(96.57% 97.87% 70.05%)"/><rect width="1.1" height="10" x="44.273" fill="rgb(96.54% 97.82% 70.67%)"/><rect width="1.1" height="10" x="43.273" fill="rgb(96.51% 97.78% 71.28%)"/><rect width="1.1" height="10" x="42.273" fill="rgb(96.48% 97.73% 71.88%)"/><rect width="1.1" height="10" x="41.273" fill="rgb(96.44% 97.69% 72.48%)"/><rect width="1.1" height="10" x="40.273" fill="rgb(96.41% 97.64% 73.08%)"/><rect width="1.1" height="10" x="39.273" fill="rgb(96.38% 97.6% 73.68%)"/><rect width="1.1" height="10" x="38.273" fill="rgb(96.35% 97.55% 74.27%)"/><rect width="1.1" height="10" x="37.273" fill="rgb(96.32% 97.5% 74.87%)"/><rect width="1.1" height="10" x="36.273" fill="rgb(96.29% 97.45% 75.45%)"/><rect width="1.1" height="10" x="35.273" fill="rgb(96.26% 97.41% 76.04%)"/><rect width="1.1" height="10" x="34.273" fill="rgb(96.23% 97.36% 76.62%)"/><rect width="1.1" height="10" x="33.273" fill="rgb(96.2% 97.31% 77.2%)"/><rect width="1.1" height="10" x="32.273" fill="rgb(96.17% 97.26% 77.78%)"/><rect width="1.1" height="10" x="31.273" fill="rgb(96.14% 97.21% 78.35%)"/><rect width="1.1" height="10" x="30.273" fill="rgb(96.11% 97.16% 78.92%)"/><rect width="1.1" height="10" x="29.273" fill="rgb(96.08% 97.1% 79.49%)"/><rect width="1.1" height="10" x="28.273" fill="rgb(96.05% 97.05% 80.06%)"/><rect width="1.1" height="10" x="27.273" fill="rgb(96.02% 97% 80.63%)"/><rect width="1.1" height="10" x="26.273" fill="rgb(96% 96.95% 81.19%)"/><rect width="1.1" height="10" x="25.273" fill="rgb(95.97% 96.89% 81.75%)"/><rect width="1.1" height="10" x="24.273" fill="rgb(95.94% 96.84% 82.31%)"/><rect width="1.1" height="10" x="23.273" fill="rgb(95.92% 96.79% 82.87%)"/><rect width="1.1" height="10" x="22.273" fill="rgb(95.89% 96.73% 83.42%)"/><rect width="1.1" height="10" x="21.273" fill="rgb(95.86% 96.68% 83.97%)"/><rect width="1.1" height="10" x="20.273" fill="rgb(95.84% 96.62% 84.52%)"/><rect width="1.1" height="10" x="19.273" fill="rgb(95.81% 96.56% 85.07%)"/><rect width="1.1" height="10" x="18.273" fill="rgb(95.79% 96.51% 85.62%)"/><rect width="1.1" height="10" x="17.273" fill="rgb(95.76% 96.45% 86.17%)"/><rect width="1.1" height="10" x="16.273" fill="rgb(95.74% 96.39% 86.71%)"/><rect width="1.1" height="10" x="15.273" fill="rgb(95.71% 96.33% 87.25%)"/><rect width="1.1" height="10" x="14.273" fill="rgb(95.69% 96.27% 87.79%)"/><rect width="1.1" height="10" x="13.273" fill="rgb(95.67% 96.21% 88.33%)"/><rect width="1.1" height="10" x="12.273" fill="rgb(95.64% 96.15% 88.87%)"/><rect width="1.1" height="10" x="11.273" fill="rgb(95.62% 96.09% 89.4%)"/><rect width="1.1" height="10" x="10.273" fill="rgb(95.6% 96.03% 89.94%)"/><rect width="1.1" height="10" x="9.273" fill="rgb(95.58% 95.97% 90.47%)"/><rect width="1.1" height="10" x="8.273" fill="rgb(95.56% 95.91% 91%)"/><rect width="1.1" height="10" x="7.273" fill="rgb(95.54% 95.85% 91.53%)"/><rect width="1.1" height="10" x="6.273" fill="rgb(95.51% 95.78% 92.06%)"/><rect width="1.1" height="10" x="5.273" fill="rgb(95.49% 95.72% 92.58%)"/><rect width="1.1" height="10" x="4.273" fill="rgb(95.47% 95.65% 93.11%)"/><rect width="1.1" height="10" x="3.273" fill="rgb(95.45% 95.59% 93.63%)"/><rect width="1.1" height="10" x="2.273" fill="rgb(95.43% 95.52% 94.16%)"/><rect width="1.1" height="10" x="1.273" fill="rgb(95.42% 95.46% 94.68%)"/><rect width="1.1" height="10" x=".273" fill="rgb(95.4% 95.39% 95.2%)"/><rect width="123.273" height="25" y="15" fill="none" stroke="gray" stroke-width=".2"/><polyline fill="none" stroke="red" stroke-width=".2" points="123.273 15 122.273 15.03 121.273 15.06 120.273 15.09 119.273 15.12 118.273 15.149 117.273 15.179 116.273 15.208 115.273 15.237 114.273 15.267 113.273 15.295 112.273 15.324 111.273 15.353 110.273 15.381 109.273 15.41 108.273 15.438 107.273 15.466 106.273 15.494 105.273 15.522 104.273 15.549 103.273 15.577 102.273 15.604 101.273 15.631 100.273 15.658 99.273 15.685 98.273 15.712 97.273 15.738 96.273 15.765 95.273 15.791 94.273 15.817 93.273 15.843 92.273 15.869 91.273 15.895 90.273 15.92 89.273 15.946 88.273 15.971 87.273 15.996 86.273 16.021 85.273 16.046 84.273 16.07 83.273 16.095 82.273 16.119 81.273 16.143 80.273 16.167 79.273 16.191 78.273 16.215 77.273 16.238 76.273 16.261 75.273 16.285 74.273 16.308 73.273 16.33 72.273 16.353 71.273 16.376 70.273 16.398 69.273 16.42 68.273 16.442 67.273 16.464 66.273 16.486 65.273 16.508 64.273 16.529 63.273 16.55 62.273 16.571 61.273 16.592 60.273 16.613 59.273 16.634 58.273 16.654 57.273 16.674 56.273 16.694 55.273 16.714 54.273 16.734 53.273 16.754 52.273 16.773 51.273 16.792 50.273 16.811 49.273 16.83 48.273 16.849 47.273 16.868 46.273 16.886 45.273 16.904 44.273 16.922 43.273 16.94 42.273 16.958 41.273 16.975 40.273 16.993 39.273 17.01 38.273 17.027 37.273 17.044 36.273 17.06 35.273 17.077 34.273 17.093 33.273 17.109 32.273 17.125 31.273 17.141 30.273 17.156 29.273 17.172 28.273 17.187 27.273 17.202 26.273 17.217 25.273 17.232 24.273 17.246 23.273 17.261 22.273 17.275 21.273 17.289 20.273 17.302 19.273 17.316 18.273 17.329 17.273 17.343 16.273 17.356 15.273 17.368 14.273 17.381 13.273 17.394 12.273 17.406 11.273 17.418 10.273 17.43 9.273 17.442 8.273 17.453 7.273 17.464 6.273 17.476 5.273 17.487 4.273 17.497 3.273 17.508 2.273 17.518 1.273 17.529 .273 17.539"/><polyline fill="none" stroke="green" stroke-width=".2" points="123.273 15 122.273 15.007 121.273 15.015 120.273 15.022 119.273 15.03 118.273 15.038 117.273 15.046 116.273 15.055 115.273 15.063 114.273 15.072 113.273 15.081 112.273 15.09 111.273 15.1 110.273 15.11 109.273 15.119 108.273 15.129 107.273 15.14 106.273 15.15 105.273 15.161 104.273 15.171 103.273 15.182 102.273 15.194 101.273 15.205 100.273 15.217 99.273 15.229 98.273 15.241 97.273 15.253 96.273 15.266 95.273 15.278 94.273 15.291 93.273 15.304 92.273 15.318 91.273 15.331 90.273 15.345 89.273 15.359 88.273 15.373 87.273 15.387 86.273 15.402 85.273 15.417 84.273 15.432 83.273 15.447 82.273 15.463 81.273 15.478 80.273 15.494 79.273 15.511 78.273 15.527 77.273 15.544 76.273 15.56 75.273 15.577 74.273 15.595 73.273 15.612 72.273 15.63 71.273 15.648 70.273 15.666 69.273 15.684 68.273 15.703 67.273 15.722 66.273 15.741 65.273 15.76 64.273 15.78 63.273 15.8 62.273 15.82 61.273 15.84 60.273 15.86 59.273 15.881 58.273 15.902 57.273 15.923 56.273 15.945 55.273 15.966 54.273 15.988 53.273 16.01 52.273 16.033 51.273 16.055 50.273 16.078 49.273 16.101 48.273 16.125 47.273 16.148 46.273 16.172 45.273 16.196 44.273 16.221 43.273 16.245 42.273 16.27 41.273 16.295 40.273 16.32 39.273 16.346 38.273 16.372 37.273 16.398 36.273 16.424 35.273 16.45 34.273 16.477 33.273 16.504 32.273 16.532 31.273 16.559 30.273 16.587 29.273 16.615 28.273 16.643 27.273 16.672 26.273 16.701 25.273 16.73 24.273 16.759 23.273 16.789 22.273 16.818 21.273 16.849 20.273 16.879 19.273 16.91 18.273 16.94 17.273 16.972 16.273 17.003 15.273 17.035 14.273 17.067 13.273 17.099 12.273 17.131 11.273 17.164 10.273 17.197 9.273 17.23 8.273 17.264 7.273 17.298 6.273 17.332 5.273 17.366 4.273 17.401 3.273 17.436 2.273 17.471 1.273 17.506 .273 17.542"/><polyline fill="none" stroke="#00f" stroke-width=".2" points="123.273 40 122.273 40 121.273 40 120.273 40 119.273 40 118.273 40 117.273 40 116.273 40 115.273 40 114.273 40 113.273 40 112.273 40 111.273 40 110.273 40 109.273 40 108.273 40 107.273 40 106.273 40 105.273 39.872 104.273 39.719 103.273 39.565 102.273 39.41 101.273 39.254 100.273 39.097 99.273 38.939 98.273 38.78 97.273 38.619 96.273 38.458 95.273 38.296 94.273 38.133 93.273 37.968 92.273 37.803 91.273 37.636 90.273 37.469 89.273 37.3 88.273 37.131 87.273 36.96 86.273 36.788 85.273 36.615 84.273 36.441 83.273 36.266 82.273 36.09 81.273 35.913 80.273 35.735 79.273 35.555 78.273 35.375 77.273 35.193 76.273 35.01 75.273 34.827 74.273 34.642 73.273 34.456 72.273 34.269 71.273 34.08 70.273 33.891 69.273 33.7 68.273 33.509 67.273 33.316 66.273 33.122 65.273 32.927 64.273 32.731 63.273 32.534 62.273 32.335 61.273 32.135 60.273 31.935 59.273 31.733 58.273 31.53 57.273 31.325 56.273 31.12 55.273 30.913 54.273 30.705 53.273 30.496 52.273 30.286 51.273 30.075 50.273 29.862 49.273 29.649 48.273 29.434 47.273 29.217 46.273 29 45.273 28.782 44.273 28.562 43.273 28.341 42.273 28.119 41.273 27.895 40.273 27.671 39.273 27.445 38.273 27.218 37.273 26.989 36.273 26.76 35.273 26.529 34.273 26.297 33.273 26.064 32.273 25.829 31.273 25.593 30.273 25.356 29.273 25.118 28.273 24.878 27.273 24.637 26.273 24.395 25.273 24.152 24.273 23.907 23.273 23.661 22.273 23.414 21.273 23.166 20.273 22.916 19.273 22.665 18.273 22.412 17.273 22.159 16.273 21.904 15.273 21.648 14.273 21.39 13.273 21.131 12.273 20.871 11.273 20.609 10.273 20.346 9.273 20.082 8.273 19.817 7.273 19.55 6.273 19.282 5.273 19.012 4.273 18.741 3.273 18.469 2.273 18.195 1.273 17.921 .273 17.644"/><g style="font:1.5px sans-serif;text-anchor:middle"><text x="0" y="-1">0</text><text x="30.193" y="-1">0.06</text><text x="60.386" y="-1">0.12</text><text x="90.579" y="-1">0.18</text><text x="120.772" y="-1">0.24</text></g></svg>