<svg xmlns="http://www.w3.org/2000/svg" viewBox="-14 -108 158 115"><polyline fill="none" stroke="#AAA" stroke-width=".3" points="83.932 .5 83.932 -100.5"/><polyline fill="none" stroke="#AAA" stroke-width=".3" points="98.012 .5 98.012 -100.5"/><polyline fill="none" stroke="maroon" stroke-linecap="round" stroke-width=".7" points="98.012 -96.476 0 -96.476"/><polyline fill="none" stroke="#5A5" stroke-linecap="round" stroke-width=".7" points="0 5.2 -5 5.6 -5.5 6 -6 6.8 -6.5 7.2 -7 7.6 -7.5 8 -8 8.8 -8.5 9.2 -9 9.6 -9.5 10 -10 10.8 -10.5 11.2 -11 11.6 -11.5 12 -12 12.8 -12.5 13.2 -13 13.6 -13.5 14 -14 14.4 -14.5 15.2 -15 15.6 -15.5 16 -16 16.4 -16.5 16.8 -17 17.2 -17.5 18 -18 18.4 -18.5 18.8 -19 19.2 -19.5 19.6 -20 20 -20.5 20.4 -21 20.8 -21.5 21.2 -22 21.6 -22.5 22 -23 22.4 -23.5 23.2 -24 23.6 -24.5 24 -25 24.4 -25.5 24.8 -26 25.2 -26.5 25.6 -27 26 -27.5 26.4 -28 26.8 -28.5 27.2 -29 27.6 -29.5 28 -30 28.4 -30.5 28.8 -31 29.6 -31.5 30 -32 30.4 -32.5 30.8 -33 31.2 -33.5 31.6 -34 32 -34.5 32.4 -35 32.8 -35.5 33.2 -36 33.6 -36.5 34 -37 34.4 -37.5 34.8 -38 35.2 -38.5 35.6 -39 36 -39.5 36.4 -40 36.8 -40.5 37.2 -41 37.6 -41.5 38 -42 38.4 -42.5 38.8 -43 39.2 -43.5 39.6 -44 40 -44.5 40.4 -45 40.8 -45.5 41.2 -46 41.6 -46.5 42 -47 42.4 -47.5 43.2 -48 43.6 -48.5 44 -49 44.4 -49.5 44.8 -50 45.2 -50.5 45.6 -51 46 -51.5 46.4 -52 46.8 -52.5 47.2 -53 47.6 -53.5 48 -54 48.4 -54.5 48.8 -55 49.2 -55.5 49.6 -56 50.4 -56.5 50.8 -57 51.2 -57.5 51.6 -58 52 -58.5 52.4 -59 52.8 -59.5 53.2 -60 53.6 -60.5 54 -61 54.4 -61.5 54.8 -62 55.2 -62.5 55.6 -63 56.4 -63.5 56.8 -64 57.2 -64.5 57.6 -65 58 -65.5 58.4 -66 58.8 -66.5 59.2 -67 59.6 -67.5 60 -68 60.4 -68.5 60.8 -69 61.2 -69.5 62 -70 62.4 -70.5 62.8 -71 63.2 -71.5 63.6 -72 64 -72.5 64.4 -73 64.8 -73.5 65.2 -74 65.6 -74.5 66 -75 66.4 -75.5 66.8 -76 67.6 -76.5 68 -77 68.4 -77.5 68.8 -78 69.2 -78.5 69.6 -79 70 -79.5 70.4 -80 70.8 -80.5 71.2 -81 71.6 -81.5 72 -82 72.8 -82.5 73.2 -83 73.6 -83.5 74 -84 74.4 -84.5 74.8 -85 75.2 -85.5 75.6 -86 76 -86.5 76.4 -87 76.8 -87.5 77.6 -88 78 -88.5 78.4 -89 78.8 -89.5 79.2 -90 79.6 -90.5 80 -91 80.4 -91.5 80.8 -92 81.2 -92.5 81.6 -93 82 -93.5 82.8 -94 83.2 -94.5 83.6 -95 84 -95.5 84.4 -96 84.8 -96.5 85.2 -97 71.6 -97.5 53.6 -98 40 -98.5 28.4 -99 18.4 -99.5 0 -100.4"/><g fill="#000" font-family="Helvetica Neue, Helvetica, sans-serif"><g font-size="3" text-anchor="end"><text x="-2" y="1">0.00</text><text x="-2" y="-24">0.25</text><text x="-2" y="-49">0.50</text><text x="-2" y="-74">0.75</text><text x="-2" y="-99">1.00</text></g><g font-size="3" text-anchor="middle"><text x="0" y="5">0.00</text><text x="20" y="5">0.05</text><text x="40" y="5">0.10</text><text x="60" y="5">0.15</text><text x="80" y="5">0.20</text><text x="100" y="5">0.25</text><text x="120" y="5">0.30</text><text x="140" y="5">0.35</text></g><g font-size="6" text-anchor="end"><text x="134" y="-85">Hue: 110.23°</text><text x="134" y="-14">OK LCH</text><text x="134" y="-5">Gamut: sRGB</text></g><rect width="140.7" height="100.7" x="-.35" y="-100.35" fill="none" stroke="#000" stroke-width=".7"/><text x="83.932" y="-102" font-size="4" text-anchor="middle">0.210</text><text x="98.012" y="-102" font-size="4" text-anchor="middle">0.245</text><circle cx="98.012" cy="-96.476" r="1.7" fill="#ff0" stroke="#000" stroke-width=".4"/>oklch</g></svg>