<svg xmlns="http://www.w3.org/2000/svg" width="800" height="800" viewBox="-40 -40 80 80"><desc>Show a top-down view of the OKLCH color space. The sRGB primaries and secondaries are shown, with an annotation indicating the L value</desc><rect width="100%" height="100%" x="35" y="-35" fill="#fff"/><g fill="none" stroke="#000" stroke-width=".2">​<polyline points="0 -35 0 35"/><polyline points="-35 0 35 0"/><g stroke="#888"><path d="M-1,-30 h2 M-1,-20 h2 M-1,-10 h2 M-1,10 h2 M-1,20 h2 M-1,30 h2"/><path d="M30,-1 v2 M20,-1 v2 M10,-1 v2 M-10,-1 v2 M-20,-1 v2 M-30,-1 v2"/><polyline points="0 0 22.486 -12.585"/><polyline points="0 0 -14.03 -10.768"/><polyline points="0 0 -3.25 31.15"/><polyline points="0 0 -14.94 3.94"/><polyline points="0 0 27.457 16.92"/><polyline points="0 0 -7.14 -19.857"/></g></g><g stroke="none" stroke-width=".2"><circle cx="22.486" cy="-12.585" r="1" fill="red"/><circle cx="-14.03" cy="-10.768" r="1" fill="green"/><circle cx="-3.25" cy="31.15" r="1" fill="#00f"/><circle cx="-14.94" cy="3.94" r="1" fill="#0ff"/><circle cx="27.457" cy="16.92" r="1" fill="#f0f"/><circle cx="-7.14" cy="-19.857" r="1" fill="#ff0"/></g><circle r="1.4"/><circle r=".9" fill="#777"/><circle r=".6" fill="#fff"/><g font-family="sans-serif" font-size="2pt"><text x="35" y="-1">+a</text><text x="-35" y="-1" text-anchor="end">-a</text><text x="2" y="33">-b</text><text x="2" y="-33">+b</text></g><g font-family="sans-serif" font-size="1.4pt"><text x="25" y="-12">L: 62.796%<tspan x="25" dy="3">C: 0.25768<tspan x="25" dy="3">H: 29.2339</tspan></tspan></text><text x="-29" y="-11">L: 51.975%<tspan x="-29" dy="3">C: 0.17686<tspan x="-29" dy="3">H: 142.495</tspan></tspan></text><text x="-22" y="28">L: 45.201%<tspan x="-22" dy="3">C: 0.31321<tspan x="-22" dy="3">H: 264.052</tspan></tspan></text><text x="-29" y="5">L: 90.540%<tspan x="-29" dy="3">C: 0.15455<tspan x="-29" dy="3">H: 194.769</tspan></tspan></text><text x="27" y="21">L: 70.167%<tspan x="27" dy="3">C: 0.32249<tspan x="27" dy="3">H: 328.363</tspan></tspan></text><text x="-22" y="-24">L: 96.798%<tspan x="-22" dy="3">C: 0.21101<tspan x="-22" dy="3">H: 109.769</tspan></tspan></text></g></svg>